<?xml version="1.0" encoding="UTF-8" standalone="no"?>
<!-- Created with Inkscape (http://www.inkscape.org/) -->

<svg
   xmlns:dc="http://purl.org/dc/elements/1.1/"
   xmlns:cc="http://creativecommons.org/ns#"
   xmlns:rdf="http://www.w3.org/1999/02/22-rdf-syntax-ns#"
   xmlns:svg="http://www.w3.org/2000/svg"
   xmlns="http://www.w3.org/2000/svg"
   xmlns:sodipodi="http://sodipodi.sourceforge.net/DTD/sodipodi-0.dtd"
   xmlns:inkscape="http://www.inkscape.org/namespaces/inkscape"
   width="35.150112mm"
   height="25.399969mm"
   viewBox="0 0 35.150112 25.399969"
   version="1.1"
   id="svg1402"
   inkscape:version="0.92.4 (5da689c313, 2019-01-14)"
   sodipodi:docname="gmail.svg">
  <defs
     id="defs1396" />
  <sodipodi:namedview
     id="base"
     pagecolor="#ffffff"
     bordercolor="#666666"
     borderopacity="1.0"
     inkscape:pageopacity="0.0"
     inkscape:pageshadow="2"
     inkscape:zoom="1.4"
     inkscape:cx="6.6538154"
     inkscape:cy="-36.372439"
     inkscape:document-units="mm"
     inkscape:current-layer="layer1"
     showgrid="false"
     inkscape:window-width="1920"
     inkscape:window-height="1001"
     inkscape:window-x="-9"
     inkscape:window-y="-9"
     inkscape:window-maximized="1" />
  <metadata
     id="metadata1399">
    <rdf:RDF>
      <cc:Work
         rdf:about="">
        <dc:format>image/svg+xml</dc:format>
        <dc:type
           rdf:resource="http://purl.org/dc/dcmitype/StillImage" />
        <dc:title></dc:title>
      </cc:Work>
    </rdf:RDF>
  </metadata>
  <g
     inkscape:label="Capa 1"
     inkscape:groupmode="layer"
     id="layer1"
     transform="translate(-64.087545,-100.98154)">
    <path
       inkscape:connector-curvature="0"
       id="path1968"
       d="m 64.92271,125.7432 -0.742358,-0.63835 -0.0748,-10.92764 c -0.05416,-7.91272 0.01087,-11.13445 0.235705,-11.67725 0.302636,-0.73063 1.425905,-1.51842 2.165041,-1.51842 0.202319,0 3.610886,2.20266 7.574595,4.89479 3.963709,2.69214 7.363825,4.89479 7.555817,4.89479 0.19199,0 3.427068,-2.09732 7.189068,-4.66072 3.76199,-2.5634 7.0991,-4.78117 7.41579,-4.92837 0.87144,-0.40507 1.89409,-0.0202 2.47413,0.93109 0.49471,0.81138 0.52002,1.3839 0.52096,11.78721 l 10e-4,10.93442 -0.78744,0.78744 c -0.70444,0.70445 -0.93452,0.77899 -2.18281,0.70725 l -1.39544,-0.0802 -0.14889,-8.46667 c -0.0819,-4.65666 -0.17119,-8.49042 -0.19844,-8.51945 -0.0273,-0.029 -1.44853,0.93014 -3.1584,2.13148 -8.236833,5.78715 -8.125512,5.72307 -10.005488,5.75959 -0.936278,0.0182 -2.08928,0.0549 -2.562222,0.0815 -0.931842,0.0525 -0.744996,0.19654 -6.851261,-5.28178 -2.946851,-2.6438 -3.088196,-2.73525 -3.247398,-2.10094 -0.09154,0.36475 -0.157176,4.11474 -0.145846,8.33333 0.01133,4.21858 -0.05242,7.78828 -0.141656,7.93268 -0.08924,0.14439 -0.743903,0.26253 -1.454804,0.26253 -0.98472,0 -1.469345,-0.15202 -2.034906,-0.63834 z"
       style="fill:#dbaba5;stroke-width:1" />
    <path
       inkscape:connector-curvature="0"
       id="path1966"
       d="m 65.00028,125.30607 -0.704343,-0.83707 0.0745,-10.97309 0.0745,-10.97309 0.742358,-0.63835 c 0.408297,-0.35109 0.914187,-0.63835 1.1242,-0.63835 0.341369,0 2.721585,1.56247 12.36702,8.11822 2.392719,1.62627 2.940375,1.89659 3.373112,1.665 0.284141,-0.15207 3.582621,-2.37421 7.329961,-4.9381 3.74734,-2.56388 7.07727,-4.71602 7.39985,-4.78252 0.40469,-0.0834 0.8353,0.12788 1.38906,0.68164 l 0.80256,0.80256 v 10.74912 c 0,9.09452 -0.0618,10.86868 -0.40169,11.52589 -0.43938,0.84969 -1.15954,1.13408 -2.53826,1.00238 l -0.89651,-0.0856 -0.0698,-8.85395 c -0.0384,-4.86968 -0.16376,-8.94793 -0.27861,-9.06279 -0.11487,-0.11485 -3.00049,1.69862 -6.41252,4.02995 -4.71698,3.22298 -6.362182,4.21617 -6.865126,4.14442 -0.363802,-0.0519 -3.322225,-1.90334 -6.574274,-4.11431 -3.252049,-2.21096 -6.050018,-4.04581 -6.217709,-4.07746 -0.223199,-0.0421 -0.340339,2.35283 -0.437184,8.9383 l -0.132291,8.99584 -1.22224,0.0792 c -1.093243,0.0709 -1.296576,-0.009 -1.926582,-0.75783 z"
       style="fill:#da8279;stroke-width:1" />
    <path
       inkscape:connector-curvature="0"
       id="path1964"
       d="m 65.924147,125.83439 c -1.341635,-0.54874 -1.329513,-0.44182 -1.338506,-11.80489 -0.005,-6.32469 0.09663,-10.90854 0.250857,-11.31419 0.357539,-0.9404 1.336937,-1.35999 2.154656,-0.92309 0.34583,0.18477 3.605343,2.35784 7.243364,4.82903 3.638021,2.47119 6.878095,4.54796 7.200165,4.61504 0.434842,0.0906 2.409985,-1.12491 7.672915,-4.72184 3.89804,-2.66409 7.39748,-4.89077 7.77655,-4.94817 0.5096,-0.0772 0.83712,0.0837 1.25677,0.61717 0.55958,0.71139 0.56756,0.87539 0.56756,11.66606 0,10.54476 -0.0191,10.96362 -0.52244,11.46697 -0.57684,0.57684 -1.55532,0.89763 -2.30091,0.75433 -0.45442,-0.0873 -0.49254,-0.64959 -0.62496,-9.2177 -0.0776,-5.01858 -0.16685,-9.15446 -0.19843,-9.19084 -0.19631,-0.22611 -1.15627,0.36823 -6.9463,4.30065 -6.419485,4.35994 -6.430666,4.36611 -7.112547,3.92639 -0.375627,-0.24223 -3.287806,-2.21418 -6.471508,-4.38211 -3.183704,-2.16794 -5.950338,-3.87962 -6.148078,-3.80374 -0.291398,0.11182 -0.37272,1.85697 -0.429156,9.20959 l -0.06963,9.07162 -0.661458,0.0552 c -0.363802,0.0304 -0.948313,-0.0621 -1.298913,-0.2055 z"
       style="fill:#d75b50;stroke-width:1" />
    <path
       inkscape:connector-curvature="0"
       id="path1962"
       d="m 65.703157,125.5301 c -1.046766,-0.50493 -1.134399,-1.61046 -0.939208,-11.84856 0.101264,-5.31151 0.224455,-9.46978 0.273757,-9.24061 0.0493,0.22918 0.798011,0.82449 1.663798,1.32292 1.591028,0.91595 1.795229,1.13879 1.315306,1.4354 -0.168221,0.10397 -0.264583,3.53053 -0.264583,9.40832 v 9.24481 l -0.727605,-0.0179 c -0.400182,-0.01 -0.994841,-0.14681 -1.321465,-0.30437 z m 29.734931,0.13869 c -0.10098,-0.10098 -0.17696,-3.58355 -0.16884,-7.73906 0.008,-4.15552 0.0114,-8.18429 0.007,-8.95285 -0.005,-0.96049 -0.12552,-1.44263 -0.3849,-1.54217 -0.21845,-0.0838 -3.0095,1.64662 -6.62802,4.10935 -3.43787,2.33978 -6.416466,4.25415 -6.619113,4.25415 -0.202645,0 -1.89324,-1.06632 -3.756875,-2.36959 -1.863635,-1.30328 -4.614534,-3.22717 -6.113105,-4.27532 l -2.724678,-1.90573 1.004885,-1.07843 c 0.552688,-0.59314 1.007286,-1.1025 1.01022,-1.13192 0.0029,-0.0294 2.265122,1.42545 5.027084,3.23306 2.761961,1.8076 5.252675,3.28836 5.534919,3.29057 0.487656,0.004 2.894293,-1.56584 11.142353,-7.26732 2.00367,-1.38503 3.90311,-2.51824 4.22098,-2.51824 0.31786,0 0.80475,0.25056 1.08197,0.5568 0.4786,0.5287 0.50403,1.11051 0.50403,11.5326 v 10.97581 l -0.62463,0.50594 c -0.60874,0.49307 -2.14565,0.69018 -2.51347,0.32235 z"
       style="fill:#d64639;stroke-width:1" />
    <path
       inkscape:connector-curvature="0"
       id="path1960"
       d="m 95.484698,116.39352 c -0.0742,-7.78047 -0.0259,-9.5058 0.27221,-9.72344 0.19932,-0.14552 0.88544,-0.65699 1.5247,-1.1366 0.63926,-0.4796 1.17745,-0.77726 1.19599,-0.66145 0.0186,0.1158 0.0113,4.61587 -0.0161,10.00014 l -0.0498,9.78958 -0.66016,0.59531 c -0.36308,0.32743 -1.00138,0.59532 -1.41844,0.59532 h -0.75828 l -0.0902,-9.45886 z m -28.129346,-9.06198 c -0.08994,-0.14552 -0.03743,-0.26458 0.116676,-0.26458 0.154109,0 0.280199,0.11906 0.280199,0.26458 0,0.14552 -0.0525,0.26459 -0.116677,0.26459 -0.06417,0 -0.190262,-0.11907 -0.280198,-0.26459 z"
       style="fill:#c03828;stroke-width:1" />
  </g>
</svg>
