<?xml version="1.0" encoding="UTF-8" standalone="no"?>
<!-- Created with Inkscape (http://www.inkscape.org/) -->

<svg
   xmlns:dc="http://purl.org/dc/elements/1.1/"
   xmlns:cc="http://creativecommons.org/ns#"
   xmlns:rdf="http://www.w3.org/1999/02/22-rdf-syntax-ns#"
   xmlns:svg="http://www.w3.org/2000/svg"
   xmlns="http://www.w3.org/2000/svg"
   xmlns:sodipodi="http://sodipodi.sourceforge.net/DTD/sodipodi-0.dtd"
   xmlns:inkscape="http://www.inkscape.org/namespaces/inkscape"
   width="150.08365mm"
   height="106.9562mm"
   viewBox="0 0 150.08365 106.9562"
   version="1.1"
   id="svg8"
   inkscape:version="0.92.4 (5da689c313, 2019-01-14)"
   sodipodi:docname="logo.svg">
  <defs
     id="defs2" />
  <sodipodi:namedview
     id="base"
     pagecolor="#ffffff"
     bordercolor="#666666"
     borderopacity="1.0"
     inkscape:pageopacity="0.0"
     inkscape:pageshadow="2"
     inkscape:zoom="0.49497475"
     inkscape:cx="988.46123"
     inkscape:cy="539.48536"
     inkscape:document-units="mm"
     inkscape:current-layer="layer1"
     showgrid="false"
     fit-margin-top="0"
     fit-margin-left="0"
     fit-margin-right="0"
     fit-margin-bottom="0"
     inkscape:window-width="1920"
     inkscape:window-height="1001"
     inkscape:window-x="-9"
     inkscape:window-y="-9"
     inkscape:window-maximized="1" />
  <metadata
     id="metadata5">
    <rdf:RDF>
      <cc:Work
         rdf:about="">
        <dc:format>image/svg+xml</dc:format>
        <dc:type
           rdf:resource="http://purl.org/dc/dcmitype/StillImage" />
        <dc:title></dc:title>
      </cc:Work>
    </rdf:RDF>
  </metadata>
  <g
     inkscape:label="Capa 1"
     inkscape:groupmode="layer"
     id="layer1"
     transform="translate(-23.675631,-149.91758)">
    <path
       style="fill:#b71c10;fill-opacity:0.75294118;stroke-width:0.99999988"
       d="m 28.49856,235.01075 c 0.113291,-0.22672 -0.112668,-1.07977 -0.502125,-1.89567 -0.389462,-0.8159 -1.412077,-3.63483 -2.272468,-6.26431 -4.185999,-12.79304 -1.927195,-22.24226 6.511009,-27.23736 2.745244,-1.62512 6.506357,-2.54154 14.316464,-3.48843 9.299527,-1.12746 11.203613,-1.68362 15.170853,-4.43124 3.061909,-2.12062 4.148377,-3.22427 11.958973,-12.14805 0.799999,-0.91402 2.858102,-2.53579 4.573562,-3.60396 3.831441,-2.3857 6.23817,-2.81401 9.089692,-1.61755 3.248775,1.36312 3.154223,1.65473 -1.397808,4.31077 -3.299447,1.92518 -4.228683,2.66267 -5.600359,4.44464 -2.179958,2.83203 -3.240602,5.34845 -3.605599,8.55442 -0.416506,3.65841 0.183002,4.70989 3.22751,5.66073 2.061757,0.6439 2.332338,0.83697 1.704455,1.21619 -0.410504,0.24792 -0.659699,0.63234 -0.553763,0.85426 0.105932,0.22192 0.0263,0.50394 -0.176957,0.6267 -0.203254,0.12276 -0.359186,-0.0169 -0.346487,-0.31056 0.01389,-0.32165 -0.528251,-0.20079 -1.364296,0.30414 -0.783373,0.47313 -1.359169,1.10376 -1.322608,1.44858 0.0518,0.48855 0.01109,0.51314 -0.203558,0.12294 -0.147598,-0.26823 -0.543109,-0.32174 -0.878983,-0.11879 -0.544562,0.32895 -0.381349,0.84926 1.508029,4.80736 1.222159,2.56033 2.230857,4.30245 2.383773,4.11703 0.145803,-0.17681 -0.473323,-1.79125 -1.375852,-3.58762 -1.341819,-2.67069 -1.545476,-3.32382 -1.117118,-3.58254 0.42414,-0.25615 0.831097,0.32735 2.1384,3.06605 l 1.614575,3.38239 -1.359364,2.17823 c -1.53891,2.46594 -1.60673,3.85146 -0.320464,6.54609 1.024028,2.14526 2.245562,3.18655 4.672856,3.98337 2.356774,0.77368 3.751022,0.54992 7.238943,-1.1614 2.83673,-1.39187 2.92444,-1.40163 3.307305,-0.36775 1.105198,2.9844 -2.657095,7.5295 -7.716131,9.32158 -2.360656,0.83623 -3.765829,1.10297 -10.330272,1.96084 -3.820442,0.49931 -4.892369,1.4372 -8.679429,7.59431 -4.947367,8.04351 -6.60684,10.39802 -9.097429,12.90771 -2.1247,2.141 -2.419015,2.31964 -5.526144,3.35417 -3.868164,1.288 -5.317961,1.24115 -9.036881,-0.29196 -4.741176,-1.95454 -10.189471,-8.05195 -13.698649,-15.3307 -0.596522,-1.23712 -1.546886,-2.84856 -2.112075,-3.58087 -0.59859,-0.7756 -0.941606,-1.50361 -0.821638,-1.74371 z m 20.747958,-1.99383 c 0.186948,0.0666 1.31049,-0.5187 2.496747,-1.30051 1.641799,-1.08204 3.269575,-1.6638 6.816798,-2.43626 2.562985,-0.55812 6.781506,-1.65604 9.37449,-2.43985 6.47375,-1.95682 6.738383,-2.05452 6.115345,-2.25764 -0.292829,-0.0955 -2.652852,0.47 -5.24449,1.25661 -6.347184,1.92648 -16.203477,4.19793 -16.402905,3.78016 -0.08864,-0.18568 0.05969,-0.47101 0.329608,-0.63402 0.31323,-0.18918 0.292352,-0.53993 -0.05772,-0.96959 -0.424388,-0.52086 -0.38156,-0.71739 0.189385,-0.8687 0.682866,-0.18095 0.578295,-0.54335 -1.402942,-4.86182 -1.71684,-3.74216 -2.26161,-4.65033 -2.750868,-4.58563 -0.335537,0.0444 -0.742817,-0.19731 -0.905036,-0.53722 -0.423297,-0.88679 -4.794921,1.74338 -4.800813,2.88836 -0.0046,0.89173 5.718794,12.77974 6.242409,12.9661 z m -4.144693,-9.9172 c 0.239841,0.2304 0.393576,0.5859 0.34166,0.78999 -0.05196,0.20411 -0.248173,0.0155 -0.436077,-0.4189 -0.207632,-0.48016 -0.170587,-0.62572 0.09445,-0.37111 z m 1.73348,3.63151 c 0.23984,0.2304 0.393572,0.5859 0.341658,0.79 -0.05196,0.20411 -0.248172,0.0155 -0.436076,-0.41891 -0.207632,-0.48017 -0.170584,-0.62572 0.09446,-0.3711 z m 0.5127,1.3473 c 0.07543,-0.0455 0.357553,0.1349 0.626924,0.40111 0.269379,0.26618 0.337647,0.57581 0.151769,0.68808 -0.185901,0.11227 -0.467989,-0.0684 -0.626922,-0.40111 -0.158901,-0.33289 -0.227194,-0.64253 -0.151771,-0.68808 z m 1.195461,1.87714 c 0.203252,-0.12275 0.359191,0.0169 0.346496,0.31055 -0.01269,0.29357 -0.0923,0.57559 -0.176958,0.62671 -0.08465,0.0512 -0.240565,-0.0886 -0.34649,-0.31057 -0.105935,-0.22192 -0.02631,-0.50393 0.176955,-0.62669 z m -0.969848,-7.21168 c 0.299218,-0.1807 0.533487,-0.0845 0.520597,0.2139 -0.01288,0.29835 -0.219478,0.52628 -0.459102,0.50652 -0.649136,-0.0535 -0.674459,-0.3502 -0.06149,-0.72042 z m 0.655777,1.96537 c 0.117721,-0.23558 0.400762,-0.30334 0.628973,-0.15062 0.228215,0.15272 0.170162,0.42553 -0.129094,0.60626 -0.612963,0.37021 -0.818789,0.18259 -0.499878,-0.45563 z m 1.252186,1.56078 c 0.203256,-0.12277 0.359184,0.0169 0.346488,0.31054 -0.01268,0.29358 -0.0923,0.57559 -0.176944,0.62669 -0.08465,0.0512 -0.240564,-0.0886 -0.346491,-0.31056 -0.105933,-0.22192 -0.02631,-0.50392 0.176943,-0.62668 z M 56.288,246.62743 c 0.960418,0.23431 1.686755,-0.91405 1.347645,-2.13063 -0.315562,-1.1321 -1.208977,-1.28926 -2.095885,-0.36867 -0.885241,0.91883 -0.503498,2.19395 0.748237,2.49932 z m 0.47069,-1.83888 c 0.415752,-0.22618 0.544091,-0.18049 0.327192,0.11647 -0.196264,0.2687 -0.504091,0.43614 -0.684027,0.37213 -0.179954,-0.0641 -0.01938,-0.28389 0.356844,-0.48854 z m 2.62684,-11.08841 c 1.004093,0.35737 1.882891,-0.39742 1.869205,-1.60542 -0.0098,-0.86735 -0.186781,-1.15487 -0.857607,-1.39362 -0.686759,-0.24443 -0.969446,-0.11315 -1.507867,0.70026 -0.717073,1.08329 -0.533802,1.93219 0.496269,2.29878 z m -5.834466,-17.6852 c 0.191933,-0.11592 0.262285,-0.39235 0.156347,-0.61426 -0.105934,-0.22193 -0.349635,-0.30867 -0.541563,-0.19277 -0.191935,0.11593 -0.262286,0.39233 -0.156348,0.61426 0.105934,0.22192 0.349636,0.30867 0.541564,0.19277 z m 0.770434,1.614 c 0.191932,-0.11592 0.262287,-0.39234 0.156347,-0.61426 -0.105934,-0.22193 -0.349636,-0.30867 -0.541566,-0.19276 -0.19193,0.11591 -0.262285,0.39233 -0.156336,0.61425 0.105934,0.22193 0.349635,0.30867 0.541564,0.19277 z m 0.767967,2.13532 c 0.08465,-0.0512 0.164268,-0.33314 0.176947,-0.6267 0.01268,-0.29356 -0.143241,-0.43331 -0.346491,-0.31057 -0.203262,0.12276 -0.282887,0.40479 -0.176947,0.62671 0.105936,0.22192 0.261855,0.36166 0.346491,0.31056 z m 0.965514,1.49619 c 0.191933,-0.11592 0.262287,-0.39234 0.156347,-0.61427 -0.105936,-0.22192 -0.349636,-0.30866 -0.541565,-0.19275 -0.191932,0.11591 -0.262286,0.39232 -0.156346,0.61425 0.105935,0.22192 0.349636,0.30867 0.541564,0.19277 z m 1.538398,3.74932 c 0.08465,-0.0512 0.16427,-0.33314 0.176944,-0.62669 0.01268,-0.29358 -0.143237,-0.43333 -0.346489,-0.31058 -0.20326,0.12276 -0.282885,0.40478 -0.176955,0.6267 0.105934,0.22192 0.261855,0.36166 0.346487,0.31056 z m 6.358561,12.79421 c 0.191933,-0.11592 0.218948,-0.48313 0.06005,-0.81601 -0.158897,-0.33289 -0.445938,-0.51043 -0.637871,-0.3945 -0.191932,0.11592 -0.218948,0.48313 -0.06006,0.816 0.158904,0.33289 0.445943,0.51043 0.637875,0.39451 z m -8.054453,-23.4661 c 0.257409,0.0212 0.376208,-0.15367 0.264026,-0.38868 -0.112189,-0.23503 -0.361008,-0.33248 -0.55294,-0.21656 -0.191927,0.11591 -0.31074,0.29083 -0.264024,0.38869 0.04672,0.0978 0.295538,0.19532 0.552938,0.21655 z m 1.733474,3.63153 c 0.257414,0.0212 0.376213,-0.1537 0.264029,-0.3887 -0.112184,-0.23503 -0.361009,-0.33249 -0.552941,-0.21657 -0.191925,0.11592 -0.310738,0.29083 -0.264022,0.38869 0.04672,0.0978 0.295538,0.19532 0.552934,0.21658 z m 0.866743,1.81573 c 0.191931,-0.11591 0.257175,-0.40305 0.144972,-0.63806 -0.112185,-0.23504 -0.307441,-0.22026 -0.433896,0.0328 -0.126457,0.25307 -0.191696,0.54019 -0.144972,0.63807 0.04672,0.0978 0.24198,0.083 0.433891,-0.0328 z m 1.733478,3.63151 c 0.19193,-0.11591 0.262289,-0.39232 0.156357,-0.61426 -0.105938,-0.22192 -0.349644,-0.30866 -0.541574,-0.19275 -0.191925,0.11591 -0.262284,0.39232 -0.156345,0.61425 0.105933,0.22193 0.349643,0.30865 0.541564,0.19276 z m 6.41084,6.75718 c 0.119787,-0.23973 0.04377,-0.55232 -0.16894,-0.69468 -0.2127,-0.14234 -0.484736,-0.0626 -0.604514,0.17703 -0.119774,0.23971 -0.04376,0.55232 0.168945,0.69467 0.212704,0.14234 0.484732,0.0626 0.604509,-0.17702 z m -0.528375,-21.74611 c 0.191933,-0.11592 0.262289,-0.39234 0.156359,-0.61427 -0.105937,-0.22192 -0.349644,-0.30866 -0.541571,-0.19276 -0.191926,0.11591 -0.262285,0.39233 -0.156345,0.61425 0.105932,0.22192 0.349642,0.30866 0.541563,0.19277 z m 2.503915,5.2455 c 0.191932,-0.11592 0.262291,-0.39232 0.156358,-0.61426 -0.105935,-0.22193 -0.349644,-0.30865 -0.541571,-0.19275 -0.191924,0.1159 -0.262285,0.39232 -0.156346,0.61425 0.105936,0.22193 0.349644,0.30866 0.541565,0.19276 z m 0.770433,1.614 c 0.191931,-0.11592 0.262291,-0.39233 0.156357,-0.61426 -0.105931,-0.22192 -0.34964,-0.30864 -0.541565,-0.19276 -0.191927,0.11592 -0.262286,0.39233 -0.156344,0.61424 0.105933,0.22194 0.349641,0.30866 0.541565,0.19276 z m 0.773148,-4.90773 c 0.239621,0.0197 0.446198,-0.20817 0.459102,-0.50651 0.01288,-0.29835 -0.221396,-0.3946 -0.520601,-0.21389 -0.612962,0.3702 -0.587638,0.66683 0.0615,0.7204 z m 1.669475,3.43244 c 0.191932,-0.11592 0.257177,-0.40304 0.144975,-0.63808 -0.112186,-0.23502 -0.307441,-0.22025 -0.433898,0.0328 -0.126458,0.25308 -0.191695,0.54021 -0.144973,0.63807 0.04672,0.0978 0.241981,0.083 0.433892,-0.0328 z m -2.157422,-4.93494 c 0.08466,-0.0512 0.164273,-0.33313 0.176954,-0.62669 0.01269,-0.29357 -0.143233,-0.43333 -0.346494,-0.31057 -0.203261,0.12276 -0.282883,0.40477 -0.176946,0.6267 0.105934,0.22193 0.261855,0.36168 0.346491,0.31056 z m 5.378061,3.11979 c 0.439336,0.84298 0.950294,1.37542 1.184325,1.23407 0.288756,-0.17439 -0.0052,-1.00531 -0.984786,-2.78411 -1.182402,-2.14696 -1.309473,-2.58801 -0.829155,-2.8781 0.479086,-0.28935 0.741226,0.0774 1.686746,2.36016 1.025241,2.47516 1.178071,2.66738 1.814987,2.28271 0.57121,-0.345 0.569263,-0.47986 -0.01092,-0.75489 -0.482075,-0.22852 -1.248572,-1.58128 -2.413919,-4.2602 -1.337964,-3.07577 -1.808403,-3.86444 -2.17356,-3.64391 -0.271515,0.16399 -0.262745,0.4299 0.02101,0.6371 0.389621,0.28452 0.344885,0.31154 -0.223679,0.13509 -0.958464,-0.29744 -1.706478,0.20514 -1.139354,0.7655 0.251213,0.24822 0.371609,0.62169 0.26755,0.82994 -0.104064,0.20826 0.309673,1.32709 0.919412,2.48631 0.609756,1.1592 1.45634,2.77487 1.881336,3.59033 z m -1.360049,-6.58614 c 0.203254,-0.12275 0.359191,0.0169 0.346492,0.31055 -0.01269,0.29358 -0.0923,0.57559 -0.176947,0.62671 -0.08465,0.0512 -0.240569,-0.0886 -0.346496,-0.31056 -0.105935,-0.22193 -0.02631,-0.50394 0.176957,-0.6267 z m 5.531224,6.0163 c 0.198905,-0.12013 -0.464278,-1.87652 -1.597801,-4.23166 -1.065818,-2.21444 -1.927436,-4.26721 -1.914708,-4.56171 0.01272,-0.29448 -0.221708,-0.38755 -0.520907,-0.20684 -0.459766,0.27768 -0.215875,1.01606 1.574659,4.76708 1.247059,2.6125 2.258598,4.35401 2.458757,4.23313 z m 0.135069,-10.99792 c 0.452684,-0.2734 0.837161,0.30185 2.34531,3.50911 1.841274,3.91571 2.012024,4.63691 1.079545,4.55996 -0.347564,-0.0287 -1.118348,-1.36367 -2.24763,-3.89286 -1.410497,-3.15901 -1.621585,-3.90784 -1.177225,-4.17621 z m 2.510347,0.39722 c 0.520284,-0.5511 0.692554,-0.32443 2.278288,2.99756 1.545646,3.23802 1.651034,3.63263 1.064636,3.98679 -0.582989,0.35211 -0.820423,0.0397 -2.278288,-2.99756 -1.433485,-2.98657 -1.560404,-3.46167 -1.064636,-3.98679 z m 0.924773,-2.76676 c 0.11257,-0.22529 0.415276,-0.39223 0.67267,-0.37102 0.667086,0.055 1.106045,1.14988 0.589842,1.47112 -0.333866,0.20756 -0.292964,0.2831 0.177825,0.32829 0.433097,0.0415 0.996206,0.94686 1.932998,3.10766 1.101197,2.54 1.229016,3.13463 0.765615,3.56176 -0.506101,0.46648 -0.727055,0.14292 -2.449965,-3.58774 -1.041541,-2.25525 -1.801596,-4.28477 -1.68902,-4.51007 z m 2.967491,1.80487 c -0.166491,-0.5136 -0.04153,-1.21046 0.277707,-1.54858 0.540819,-0.57284 0.690821,-0.38346 2.199548,2.7772 1.490733,3.12298 1.563777,3.42542 0.921221,3.81349 -0.418907,0.253 -0.846464,0.14755 -1.06949,-0.26369 -1.315497,-2.42631 -2.065105,-3.96424 -2.329003,-4.77833 z m -0.841389,-3.31358 c 0.276565,-0.16704 0.686567,-0.18073 0.911126,-0.0305 0.22455,0.15028 0.08494,0.46851 -0.310238,0.70718 -0.395188,0.23868 -0.805192,0.25239 -0.911126,0.0305 -0.105934,-0.22193 0.03367,-0.54017 0.310238,-0.7072 z m 2.151778,0.3898 c -0.387874,-1.03412 -0.348208,-1.47912 0.159184,-1.78558 0.625533,-0.37779 0.826265,-0.0929 2.698199,3.82861 1.893982,3.96776 1.978076,4.26352 1.324472,4.65826 -0.484918,0.29288 -0.836588,0.14831 -1.152265,-0.47369 -0.249925,-0.49234 -0.917564,-1.78506 -1.483655,-2.87269 -0.566137,-1.08759 -1.261774,-2.59733 -1.54593,-3.3549 z m 2.064695,-2.36237 c 0.02176,-0.4122 0.344211,-0.78972 0.71656,-0.83896 0.55847,-0.0738 1.015204,0.61904 2.60911,3.95815 l 1.932131,4.04767 -0.872401,0.5269 c -0.868071,0.52427 -0.881205,0.50835 -2.648689,-3.20873 -0.976992,-2.05456 -1.758479,-4.07285 -1.736711,-4.48503 z m 1.303662,1.23774 c 0.287892,-0.17387 0.393434,-0.58849 0.234525,-0.92139 -0.158902,-0.33288 -0.524466,-0.46299 -0.812358,-0.28911 -0.287893,0.17387 -0.393427,0.58849 -0.234525,0.92138 0.158905,0.33289 0.524462,0.46299 0.812352,0.28912 z m 1.672289,-3.08929 0.872403,-0.52688 1.926086,4.035 1.926089,4.03499 -0.872406,0.5269 -0.872399,0.52689 -1.926084,-4.03502 -1.926087,-4.03499 z m 2.617207,-1.58067 1.046884,-0.63227 1.926087,4.035 1.926086,4.03501 -1.046884,0.63227 -1.046885,0.63227 -1.926086,-4.03501 -1.926088,-4.03499 z m 2.791682,-1.68606 1.046884,-0.63227 1.926082,4.03502 1.92609,4.03501 -1.04688,0.63226 -1.04688,0.63227 -1.926089,-4.03501 -1.926086,-4.03501 z m 1.589899,3.06239 c 0.350593,-0.42506 -0.517022,-2.63199 -1.05207,-2.67614 -0.73514,-0.0608 -0.734422,0.76198 0.0017,1.88672 0.414032,0.63266 0.88672,0.98789 1.050406,0.78942 z m 1.376277,-4.85382 1.22135,-0.73764 1.92609,4.03502 1.92608,4.035 -1.22135,0.73764 -1.22137,0.73765 -1.92608,-4.03501 -1.926087,-4.03501 z m 3.14064,-1.89681 1.22136,-0.73764 1.92608,4.03502 1.92609,4.03501 -1.22135,0.73763 -1.22137,0.73765 -1.92609,-4.035 -1.92608,-4.03501 z m 3.31512,-2.00217 1.39584,-0.84302 1.80571,3.78281 1.80571,3.78283 -0.97012,0.91079 c -0.53357,0.50095 -1.10753,0.99379 -1.27547,1.09521 -0.16793,0.10142 -1.17208,-1.63134 -2.23143,-3.85059 l -1.92608,-4.035 z m 0.96304,2.0175 c 0.19194,-0.11592 0.21896,-0.48311 0.06,-0.81601 -0.15891,-0.33288 -0.44595,-0.5104 -0.63788,-0.39449 -0.19192,0.11592 -0.21895,0.48312 -0.06,0.81601 0.1589,0.33288 0.44594,0.5104 0.63786,0.39449 z m 1.49178,-3.15355 c 0.0573,-0.22522 0.63335,-0.72906 1.28007,-1.11965 l 1.17584,-0.71014 1.77805,3.99444 c 1.75735,3.94792 1.76804,4.00091 0.91861,4.54848 -1.64159,1.05824 -1.80239,0.93311 -3.57604,-2.78254 -0.92442,-1.93659 -1.63387,-3.70534 -1.57653,-3.93059 z m 3.76809,-2.28544 c 0.23401,-0.31105 0.9529,-0.74256 1.59753,-0.95892 l 1.17207,-0.3934 1.65646,3.73929 1.65645,3.73929 -1.39585,0.84302 -1.39583,0.84303 -1.85816,-3.62339 c -1.52546,-2.97468 -1.78174,-3.72478 -1.43267,-4.18892 z m 1.71936,1.22388 c 0.19193,-0.11591 0.21894,-0.48311 0.0601,-0.816 -0.1589,-0.33289 -0.44595,-0.51041 -0.63788,-0.39449 -0.19193,0.11591 -0.21895,0.48312 -0.0601,0.81601 0.15891,0.33288 0.44595,0.5104 0.63789,0.39448 z m 3.36744,-4.01162 1.71627,-0.87811 1.55757,3.21793 c 0.85666,1.76985 1.60234,3.48328 1.65705,3.80761 0.0596,0.35331 -0.51512,0.9609 -1.43351,1.51558 l -1.53299,0.92584 -1.84034,-3.85535 -1.84034,-3.85537 1.71627,-0.87811 z m 4.07398,-2.56197 1.93419,-1.16816 1.6813,3.79299 1.68129,3.79297 -1.70488,1.02967 -1.70487,1.02967 -1.9106,-3.65449 -1.9106,-3.65449 z m 0.93363,1.51545 c 0.19193,-0.11591 0.26741,-0.38162 0.16776,-0.59045 -0.0997,-0.20882 -0.39185,-0.39705 -0.64924,-0.4183 -0.25742,-0.0212 -0.33289,0.24444 -0.16776,0.59043 0.16516,0.34599 0.45731,0.53423 0.64925,0.41832 z m 3.59157,-4.24846 1.91929,-1.15916 1.70843,3.57903 1.70843,3.57903 -1.55407,1.21684 c -0.85474,0.66924 -1.71226,1.20376 -1.90562,1.18777 -0.19334,-0.0159 -1.12647,-1.65245 -2.07364,-3.63668 l -1.72211,-3.60769 z m 3.08283,-0.43235 c -0.39887,-1.11909 -0.32883,-1.23093 1.4395,-2.29892 1.17086,-0.70715 2.00583,-0.97095 2.25614,-0.71282 0.21854,0.22539 1.033,1.78031 1.80989,3.4554 l 1.41258,3.04556 -1.94875,1.33286 c -1.07183,0.73309 -2.02703,1.19298 -2.12265,1.02207 -0.9518,-1.70127 -2.51091,-4.90208 -2.84669,-5.84417 z m 2.39857,-0.79884 c 0.19193,-0.11593 0.21896,-0.48313 0.0601,-0.81602 -0.1589,-0.33287 -0.44594,-0.51041 -0.63787,-0.3945 -0.19193,0.11592 -0.21895,0.48313 -0.06,0.81601 0.15891,0.33289 0.44595,0.51042 0.63787,0.39451 z m 2.28137,-2.54745 c -0.17056,-0.63958 0.17095,-1.01301 1.85924,-2.0326 l 2.06817,-1.24909 1.73349,3.6315 1.73347,3.63151 -2.09376,1.26454 c -1.15157,0.6955 -2.17792,1.13993 -2.28076,0.9876 -0.52387,-0.77579 -2.83863,-5.55385 -3.01986,-6.23346 z m 5.05866,-3.68832 c 0.12976,-0.25973 1.22963,-0.91474 2.44408,-1.45561 2.78071,-1.23831 3.57526,-2.06743 4.368,-4.55799 0.76682,-2.40913 -0.3628,-2.01405 11.56278,-4.04417 4.34488,-0.73964 9.62488,-1.6511 11.73333,-2.02547 2.10844,-0.37439 3.89627,-0.54931 3.97292,-0.38873 0.0767,0.16059 -0.60581,1.16778 -1.51659,2.23822 -1.04309,1.22593 -1.6268,2.31341 -1.57714,2.9383 0.0726,0.91328 -0.20625,1.15174 -3.51162,3.00326 -3.82385,2.14195 -7.67002,5.06853 -9.67099,7.35869 -1.1768,1.34691 -1.26797,1.3753 -2.46303,0.7671 -2.82106,-1.43572 -4.05892,-1.2879 -8.29448,0.99044 l -3.93547,2.11693 -1.67388,-3.23439 c -0.9891,-1.9112 -1.57735,-3.42756 -1.43791,-3.70661 z m 10.13123,-6.75929 c 0.36481,-0.4849 0.5022,-0.40162 0.68238,0.41361 0.14756,0.66771 0.34095,0.8809 0.55912,0.61638 0.60985,-0.73942 -0.35144,-1.97292 -1.2515,-1.6059 -0.46568,0.18989 -0.75673,0.53376 -0.64674,0.76416 0.10997,0.2304 0.40552,0.14557 0.65674,-0.18825 z m 3.80854,-0.48398 c 0.62294,-0.55994 1.41048,0.11289 0.87992,0.75176 -0.24193,0.29134 -0.19647,0.32227 0.12964,0.0882 0.82721,-0.59376 -0.14498,-2.01155 -1.10962,-1.6182 -0.46568,0.18989 -0.75021,0.54743 -0.63226,0.79452 0.11795,0.24708 0.44749,0.23976 0.73232,-0.0163 z m 3.53266,-0.4669 c 0.19194,-0.11592 0.25718,-0.40305 0.14484,-0.63811 -0.11218,-0.23502 -0.30744,-0.22025 -0.43389,0.0328 -0.12649,0.25307 -0.19169,0.5402 -0.14484,0.63811 0.0467,0.0978 0.24198,0.0831 0.43389,-0.0328 z m 1.11223,0.88775 c 0.72426,-0.43741 0.50997,-1.7919 -0.32407,-2.04849 -0.53362,-0.16416 -0.55665,-0.0844 -0.11015,0.38107 0.35129,0.36638 0.41033,0.79325 0.15638,1.13077 -0.52717,0.70073 -0.40012,0.94612 0.27786,0.53665 z m 2.85892,-1.98656 c 0.40031,-0.47125 0.6633,-0.49402 0.86341,-0.0748 0.15828,0.33157 0.0526,0.85187 -0.23489,1.15619 -0.40352,0.42728 -0.34331,0.45882 0.26433,0.13837 0.4328,-0.22821 0.79827,-0.67819 0.81219,-0.99992 0.0359,-0.83053 -1.55814,-1.29256 -2.07752,-0.6022 -0.6339,0.84256 -0.30522,1.17998 0.37241,0.38231 z m 4.01276,-0.60413 c 0.40434,-0.24421 0.59856,-0.0565 0.74489,0.71974 0.18534,0.98338 0.21593,0.98459 0.4815,0.019 0.15606,-0.56708 0.10441,-1.15101 -0.11457,-1.29758 -0.54208,-0.36279 -2.05079,0.068 -1.83336,0.52348 0.096,0.20114 0.42071,0.21707 0.72152,0.0354 z m 3.79635,-0.56838 c 0.35858,-0.47664 0.48027,-0.38397 0.63065,0.48027 0.12724,0.73121 0.26707,0.90928 0.4409,0.56141 0.44804,-0.89665 -0.42887,-2.11462 -1.19108,-1.65429 -0.38385,0.23184 -0.61396,0.59739 -0.51135,0.81236 0.1026,0.21494 0.38649,0.12506 0.63088,-0.19975 z m -20.01388,-1.24499 c 0.22949,-0.30504 0.57639,-0.44813 0.77087,-0.31798 0.54361,0.36382 0.6041,1.80727 0.0798,1.90426 -0.72423,0.13399 -1.31546,-0.96849 -0.85067,-1.58628 z m 3.98492,-0.67543 c 0.73164,-0.44185 0.98927,-0.195 1.14597,1.09804 0.073,0.60259 -0.0647,0.73973 -0.60944,0.60686 -1.03475,-0.25247 -1.33928,-1.22007 -0.53653,-1.7049 z m 3.6255,-0.45075 c 0.57126,-0.75933 0.98379,-0.55048 1.18388,0.59937 0.10142,0.5828 -0.072,0.98367 -0.44696,1.03325 -0.80927,0.10701 -1.27294,-0.92019 -0.73692,-1.63263 z m 3.92775,-0.9921 c 0.68327,-0.41265 1.04501,-0.17708 1.26641,0.82472 0.28841,1.305 -0.67769,1.66435 -1.25017,0.46504 -0.27285,-0.57162 -0.27989,-1.13052 -0.0162,-1.28976 z m 3.6361,-0.15279 c 0.15243,-0.43955 0.41521,-0.75001 0.58413,-0.68988 0.41797,0.14873 0.71807,2.0188 0.35878,2.23577 -0.55384,0.3345 -1.21751,-0.75358 -0.94291,-1.54589 z m 3.70093,-0.6357 c 0.16196,-0.4674 0.43276,-0.80062 0.60168,-0.7405 0.51291,0.18255 0.68839,2.10758 0.20033,2.19766 -0.74173,0.1369 -1.11772,-0.54624 -0.80201,-1.45716 z"
       id="path847"
       inkscape:connector-curvature="0"
       sodipodi:nodetypes="csccccsccscssssscscccsccsscssscccccccccscccccccsssscccscccccccccccccscsssssssssscsccscscsssccscccccccccccssssssssssscssssssssscsssssssscsssccssscsscssssssssccsssssssssssssssssccscsscssssssscscssscsscccccccscssssccssssccsscsscccccccccccccsscccscssscsssccccccscsccsssssccccccccccccccccccccccccccccccccccccccccccccccccccccccssccssssscscccscccccccccccsssssccccsccccccccccccccsscssccccccscccscccccccssssscscccsccccccscscscscscsccccccscccccscsscssscscscscccscssccsscccsscccccsscscccccssssccsccccc" />
    <text
       xml:space="preserve"
       style="font-style:normal;font-variant:normal;font-weight:normal;font-stretch:normal;font-size:21.7601757px;line-height:1.25;font-family:Verdana;-inkscape-font-specification:Verdana;letter-spacing:0px;word-spacing:0px;fill:#d50000;fill-opacity:0.94117647;stroke:none;stroke-width:0.26458332"
       x="65.559372"
       y="279.23761"
       id="text851"
       transform="scale(1.1129998,0.89847276)"><tspan
         sodipodi:role="line"
         id="tspan849"
         x="65.559372"
         y="279.23761"
         style="fill:#d50000;fill-opacity:0.94117647;stroke-width:0.26458332">mUSIC</tspan></text>
  </g>
</svg>
